<svg xmlns="http://www.w3.org/2000/svg" xmlns:xlink="http://www.w3.org/1999/xlink" width="250pt" height="200pt" viewBox="0 0 960 540" version="1.1" style="&#10;">
<g id="surface1">
<rect x="0" y="0" width="960" height="540" style="fill: transparent;fill-opacity:1;stroke:none;"/>
<path style=" stroke:none;fill-rule:nonzero;fill:rgb(73.725891%,82.745361%,94.509888%);fill-opacity:1;" d="M 626.402344 118.152344 C 710.476563 187.738281 722.21875 312.304688 652.632813 396.378906 C 583.042969 480.449219 458.476563 492.191406 374.40625 422.605469 C 336.960938 391.613281 312.253906 347.914063 305.007813 299.851563 L 393.324219 286.53125 C 402.246094 345.667969 457.417969 386.378906 516.554688 377.457031 C 575.695313 368.535156 616.402344 313.363281 607.480469 254.226563 C 603.507813 227.890625 589.96875 203.941406 569.453125 186.957031 Z M 626.402344 118.152344 "/>
<path style=" stroke:none;fill-rule:nonzero;fill:rgb(10.195923%,45.097351%,90.98053%);fill-opacity:1;" d="M 675.808594 360.847656 C 625.425781 457.660156 506.101563 495.292969 409.289063 444.910156 C 353.257813 415.75 314.542969 361.558594 305.121094 299.097656 L 393.441406 285.773438 C 402.363281 344.910156 457.535156 385.621094 516.671875 376.699219 C 550.898438 371.535156 580.597656 350.320313 596.578125 319.613281 Z M 675.808594 360.847656 "/>
<path style=" stroke:none;fill-rule:nonzero;fill:rgb(73.725891%,82.745361%,94.509888%);fill-opacity:1;" d="M 634.949219 187.511719 C 616.675781 205.78125 587.050781 205.78125 568.78125 187.511719 C 550.507813 169.238281 550.507813 139.613281 568.78125 121.34375 C 587.050781 103.070313 616.675781 103.070313 634.949219 121.34375 C 653.222656 139.613281 653.222656 169.238281 634.949219 187.511719 Z M 634.949219 187.511719 "/>
<path style=" stroke:none;fill-rule:nonzero;fill:rgb(10.195923%,45.097351%,90.98053%);fill-opacity:1;" d="M 385.9375 350.734375 C 357.558594 379.117188 311.539063 379.117188 283.160156 350.734375 C 254.777344 322.351563 254.777344 276.335938 283.160156 247.953125 C 311.539063 219.574219 357.558594 219.574219 385.9375 247.953125 C 414.320313 276.335938 414.320313 322.351563 385.9375 350.734375 Z M 385.9375 350.734375 "/>
<path style=" stroke:none;fill-rule:nonzero;fill:rgb(73.725891%,82.745361%,94.509888%);fill-opacity:1;" d="M 357.527344 322.324219 C 344.835938 335.015625 324.261719 335.015625 311.570313 322.324219 C 298.878906 309.632813 298.878906 289.054688 311.570313 276.367188 C 324.261719 263.675781 344.835938 263.675781 357.527344 276.367188 C 370.21875 289.054688 370.21875 309.632813 357.527344 322.324219 Z M 357.527344 322.324219 "/>
<path style=" stroke:none;fill-rule:nonzero;fill:rgb(10.195923%,45.097351%,90.98053%);fill-opacity:1;" d="M 615.714844 168.277344 C 608.066406 175.925781 595.664063 175.925781 588.015625 168.277344 C 580.363281 160.628906 580.363281 148.226563 588.015625 140.574219 C 595.664063 132.925781 608.066406 132.925781 615.714844 140.574219 C 623.367188 148.226563 623.367188 160.628906 615.714844 168.277344 Z M 615.714844 168.277344 "/>
<path style=" stroke:none;fill-rule:nonzero;fill:rgb(10.195923%,45.097351%,90.98053%);fill-opacity:1;" d="M 672.75 367.640625 C 660.328125 389.164063 632.808594 396.535156 611.285156 384.109375 C 589.765625 371.6875 582.394531 344.167969 594.816406 322.644531 C 607.242188 301.125 634.761719 293.75 656.28125 306.175781 C 677.804688 318.601563 685.175781 346.121094 672.75 367.640625 Z M 672.75 367.640625 "/>
</g>
</svg>