<svg xmlns="http://www.w3.org/2000/svg" xmlns:xlink="http://www.w3.org/1999/xlink" width="567pt" height="567pt" viewBox="0 0 567 567" version="1.1">
<defs>
<clipPath id="clip1">
  <path d="M 0 0 L 566.878906 0 L 566.878906 566.878906 L 0 566.878906 Z M 0 0 "/>
</clipPath>
</defs>
<g id="surface1">
<g clip-path="url(#clip1)" clip-rule="nonzero">
<path style="stroke:none;fill-rule:nonzero;fill: transparent;fill-opacity: 0;" d="M 0 0 L 566.878906 0 L 566.878906 566.878906 L 0 566.878906 Z M 0 0 "/>
</g>
<path style="stroke:none;fill-rule:nonzero;fill: transparent;fill-opacity: 0;" d="M 0 0 L 566.875 0 L 566.875 566.875 L 0 566.875 Z M 0 0 "/>
<path style=" stroke:none;fill-rule:nonzero;fill:rgb(95.68634%,26.274109%,21.176147%);fill-opacity:1;" d="M 57.6875 412.964844 C 57.6875 385.480469 79.964844 363.203125 107.449219 363.203125 C 134.933594 363.203125 157.210938 385.480469 157.210938 412.964844 L 157.210938 472.96875 C 157.210938 500.449219 134.933594 522.730469 107.449219 522.730469 C 79.964844 522.730469 57.6875 500.449219 57.6875 472.96875 Z M 57.6875 412.964844 "/>
<path style=" stroke:none;fill-rule:nonzero;fill:rgb(95.68634%,26.274109%,21.176147%);fill-opacity:1;" d="M 331.316406 472.96875 C 331.316406 500.449219 309.035156 522.730469 281.550781 522.730469 C 254.070313 522.730469 231.789063 500.449219 231.789063 472.96875 L 231.789063 253.433594 C 231.789063 225.953125 254.070313 203.671875 281.550781 203.671875 C 309.035156 203.671875 331.316406 225.953125 331.316406 253.4375 Z M 331.316406 472.96875 "/>
<path style=" stroke:none;fill-rule:nonzero;fill:rgb(91.372681%,11.764526%,38.822937%);fill-opacity:1;" d="M 509.1875 472.96875 C 509.1875 500.449219 486.910156 522.730469 459.425781 522.730469 C 431.941406 522.730469 409.664063 500.449219 409.664063 472.96875 L 409.664063 93.90625 C 409.664063 66.421875 431.941406 44.144531 459.425781 44.144531 C 486.910156 44.144531 509.1875 66.425781 509.1875 93.90625 Z M 509.1875 472.96875 "/>
</g>
</svg>