<svg xmlns="http://www.w3.org/2000/svg" xmlns:xlink="http://www.w3.org/1999/xlink" width="960pt" height="540pt" viewBox="0 0 960 540" version="1.1">
<defs>
<clipPath id="clip1">
  <path d="M 0 0 L 959.761719 0 L 959.761719 540 L 0 540 Z M 0 0 "/>
</clipPath>
</defs>
<g id="surface1">
<g clip-path="url(#clip1)" clip-rule="nonzero" style="&#10;    fill: #eee;&#10;">
<path style=" stroke:none;fill-rule:nonzero;fill:transparent;fill-opacity:1;" d="M 0 540 L 959.761719 540 L 959.761719 0 L 0 0 Z M 0 540 "/>
</g>
<rect x="0" y="0" width="960" height="540" style="fill: #191919;fill-opacity:1;stroke:none;"/>
<path style="stroke:none;fill-rule:nonzero;fill: #96f1fd;fill-opacity:1;" d="M 530.53125 134.90625 C 530.53125 128.132813 536.023438 122.644531 542.796875 122.644531 C 549.566406 122.644531 555.058594 128.132813 555.058594 134.90625 C 555.058594 141.679688 549.566406 147.171875 542.796875 147.171875 C 536.023438 147.171875 530.53125 141.679688 530.53125 134.90625 "/>
<path style="stroke:none;fill-rule:nonzero;fill: #96f1fd;fill-opacity:1;" d="M 545.433594 137.554688 C 545.433594 125.882813 554.894531 116.421875 566.566406 116.421875 C 578.238281 116.421875 587.703125 125.882813 587.703125 137.554688 C 587.703125 149.226563 578.238281 158.691406 566.566406 158.691406 C 554.894531 158.691406 545.433594 149.226563 545.433594 137.554688 "/>
<path style="stroke:none;fill-rule:nonzero;fill: #96f1fd;fill-opacity:1;" d="M 519.570313 149.949219 C 519.570313 144.859375 523.695313 140.730469 528.789063 140.730469 L 581.328125 140.730469 C 586.421875 140.730469 590.550781 144.859375 590.550781 149.949219 C 590.550781 155.039063 586.421875 159.167969 581.328125 159.167969 L 528.789063 159.167969 C 523.695313 159.167969 519.570313 155.039063 519.570313 149.949219 "/>
<path style="stroke:none;fill-rule:nonzero;fill: #96f1fd;fill-opacity:1;" d="M 572.910156 146.777344 C 572.910156 140.003906 578.402344 134.511719 585.175781 134.511719 C 591.945313 134.511719 597.4375 140.003906 597.4375 146.777344 C 597.4375 153.550781 591.945313 159.039063 585.175781 159.039063 C 578.402344 159.039063 572.910156 153.550781 572.910156 146.777344 "/>
<path style="fill:none;stroke-width: 30px;stroke-linecap:round;stroke-linejoin:round;stroke: #F44336;stroke-opacity:1;stroke-miterlimit:10;" d="M 4761.796875 4584.414063 L 4761.796875 4789.21875 " transform="matrix(0.1,0,0,-0.1,0,540)"/>
<path style="fill:none;stroke-width: 30;stroke-linecap:round;stroke-linejoin:round;stroke: #F44336;stroke-opacity:0.4784;stroke-miterlimit:10;" d="M 4761.796875 4877.578125 L 4761.796875 5082.421875 " transform="matrix(0.1,0,0,-0.1,0,540)"/>
<path style="fill:none;stroke-width: 30;stroke-linecap:round;stroke-linejoin:round;stroke: #F44336;stroke-opacity:1;stroke-miterlimit:10;" d="M 5093.789063 4302.65625 L 5093.789063 4481.640625 " transform="matrix(0.1,0,0,-0.1,0,540)"/>
<path style="fill:none;stroke-width: 30;stroke-linecap:round;stroke-linejoin:round;stroke: #F44336;stroke-opacity:0.4784;stroke-miterlimit:10;" d="M 5093.789063 4563.710938 L 5093.789063 4614.21875 " transform="matrix(0.1,0,0,-0.1,0,540)"/>
<path style="stroke:none;fill-rule:nonzero;fill: #E91E63;fill-opacity:1;" d="M 368.394531 274.960938 C 338.089844 223.789063 355.007813 157.746094 406.175781 127.441406 C 457.347656 97.136719 523.394531 114.054688 553.695313 165.222656 C 573.660156 198.933594 573.738281 240.828125 553.902344 274.613281 "/>
<path style="stroke:none;fill-rule:nonzero;fill: #E91E63;fill-opacity:1;" d="M 407.070313 120.242188 C 407.070313 118.183594 408.738281 116.515625 410.796875 116.515625 C 412.855469 116.515625 414.527344 118.183594 414.527344 120.242188 L 414.527344 164.621094 C 414.527344 166.679688 412.855469 168.351563 410.796875 168.351563 C 408.738281 168.351563 407.070313 166.679688 407.070313 164.621094 "/>
<path style="stroke:none;fill-rule:nonzero;fill: #191919;fill-opacity:1;" d="M 414.527344 107.441406 C 414.527344 102.316406 418.683594 98.160156 423.808594 98.160156 C 428.933594 98.160156 433.089844 102.316406 433.089844 107.441406 L 433.089844 140.710938 C 433.089844 145.839844 428.933594 149.992188 423.808594 149.992188 C 418.683594 149.992188 414.527344 145.839844 414.527344 140.710938 "/>
<path style="stroke:none;fill-rule:nonzero;fill: #E91E63;fill-opacity:1;" d="M 433.089844 115.125 C 433.089844 108.46875 438.484375 103.074219 445.140625 103.074219 C 451.796875 103.074219 457.191406 108.46875 457.191406 115.125 L 457.191406 142.855469 C 457.191406 149.511719 451.796875 154.90625 445.140625 154.90625 C 438.484375 154.90625 433.089844 149.511719 433.089844 142.855469 "/>
<path style="stroke:none;fill-rule:nonzero;fill: #191919;fill-opacity:1;" d="M 456.859375 90.847656 C 456.859375 88.789063 458.527344 87.121094 460.585938 87.121094 C 462.644531 87.121094 464.316406 88.789063 464.316406 90.847656 L 464.316406 135.226563 C 464.316406 137.285156 462.644531 138.953125 460.585938 138.953125 C 458.527344 138.953125 456.859375 137.285156 456.859375 135.226563 "/>
<path style="stroke:none;fill-rule:nonzero;fill: #E91E63;fill-opacity:1;" d="M 464.316406 109.078125 C 464.316406 102.425781 469.710938 97.027344 476.367188 97.027344 C 483.023438 97.027344 488.417969 102.425781 488.417969 109.078125 L 488.417969 136.8125 C 488.417969 143.46875 483.023438 148.863281 476.367188 148.863281 C 469.710938 148.863281 464.316406 143.46875 464.316406 136.8125 "/>
<path style="stroke:none;fill-rule:nonzero;fill: #191919;fill-opacity:1;" d="M 488.230469 97.75 C 488.230469 92.621094 492.382813 88.46875 497.511719 88.46875 C 502.636719 88.46875 506.792969 92.621094 506.792969 97.75 L 506.792969 131.019531 C 506.792969 136.144531 502.636719 140.300781 497.511719 140.300781 C 492.382813 140.300781 488.230469 136.144531 488.230469 131.019531 "/>
<path style="stroke:none;fill-rule:nonzero;fill: #E91E63;fill-opacity:1;" d="M 506.078125 123.785156 C 506.078125 121.726563 507.746094 120.058594 509.804688 120.058594 C 511.863281 120.058594 513.53125 121.726563 513.53125 123.785156 L 513.53125 168.164063 C 513.53125 170.222656 511.863281 171.894531 509.804688 171.894531 C 507.746094 171.894531 506.078125 170.222656 506.078125 168.164063 "/>
<path style="fill:none;stroke-width:20;stroke-linecap:round;stroke-linejoin:round;stroke: #555;stroke-miterlimit:10;" d="M 3709.21875 2620.507813 L 4468.28125 1243.4375 " transform="matrix(0.1,0,0,-0.1,0,540)"/>
<path style="fill:none;stroke-width:20;stroke-linecap:round;stroke-linejoin:round;stroke: #555;stroke-miterlimit:10;" d="M 5509.21875 2625.117188 L 4750.15625 1248.046875 " transform="matrix(0.1,0,0,-0.1,0,540)"/>
<path style="fill:none;stroke-width:20;stroke-linecap:round;stroke-linejoin:round;stroke: #555;stroke-miterlimit:10;" d="M 4135.78125 2620.351563 L 4547.070313 1234.882813 " transform="matrix(0.1,0,0,-0.1,0,540)"/>
<path style="fill:none;stroke-width: 20px;stroke-linecap:round;stroke-linejoin:round;stroke: #555;stroke-miterlimit:10;" d="M 4610.46875 2625.117188 L 4610.46875 1239.648438 " transform="matrix(0.1,0,0,-0.1,0,540)"/>
<path style="fill:none;stroke-width:20;stroke-linecap:round;stroke-linejoin:round;stroke: #555;stroke-miterlimit:10;" d="M 5085.15625 2620.351563 L 4673.828125 1234.882813 " transform="matrix(0.1,0,0,-0.1,0,540)"/>
<path style="stroke:none;fill-rule:nonzero;fill: #191919;fill-opacity:1;" d="M 371.757813 275.285156 C 371.789063 269.601563 380.992188 265.007813 392.308594 265.023438 C 403.601563 265.039063 412.742188 269.644531 412.742188 275.316406 "/>
<path style="stroke:none;fill-rule:nonzero;fill: #191919;fill-opacity:1;" d="M 416.136719 275.296875 C 416.171875 269.605469 425.578125 265.003906 437.144531 265.023438 C 448.691406 265.039063 458.03125 269.648438 458.03125 275.324219 "/>
<path style="stroke:none;fill-rule:nonzero;fill: #191919;fill-opacity:1;" d="M 463.328125 275.296875 C 463.363281 269.605469 472.769531 265.003906 484.339844 265.023438 C 495.886719 265.039063 505.226563 269.648438 505.226563 275.324219 "/>
<path style="stroke:none;fill-rule:nonzero;fill: #191919;fill-opacity:1;" d="M 509.9375 275.285156 C 509.96875 269.601563 519.171875 265.007813 530.488281 265.023438 C 541.78125 265.039063 550.921875 269.644531 550.921875 275.316406 "/>
<path style="fill:none;stroke-width: 30;stroke-linecap:round;stroke-linejoin:round;stroke: #f44336;stroke-opacity:1;stroke-miterlimit:10;" d="M 4104.414063 4349.179688 L 4104.414063 4614.140625 " transform="matrix(0.1,0,0,-0.1,0,540)"/>
<path style="fill:none;stroke-width: 30;stroke-linecap:round;stroke-linejoin:round;stroke: #F44336;stroke-opacity:0.4784;stroke-miterlimit:10;" d="M 4104.414063 4686.5625 L 4104.414063 4737.03125 " transform="matrix(0.1,0,0,-0.1,0,540)"/>
<path style="fill:none;stroke-width: 30;stroke-linecap:round;stroke-linejoin:round;stroke: #F44336;stroke-opacity:1;stroke-miterlimit:10;" d="M 4442.304688 4517.890625 L 4442.304688 5054.296875 " transform="matrix(0.1,0,0,-0.1,0,540)"/>
<path style="fill:none;stroke-width:20;stroke-linecap:round;stroke-linejoin:round;stroke: #F44336;stroke-opacity:1;stroke-miterlimit:10;" d="M 5217.773438 541.132813 L 5217.773438 745.9375 " transform="matrix(0.1,0,0,-0.1,0,540)"/>
<path style="fill:none;stroke-width:20;stroke-linecap:round;stroke-linejoin:round;stroke: #F44336;stroke-opacity:0.4784;stroke-miterlimit:10;" d="M 5217.773438 834.296875 L 5217.773438 1039.140625 " transform="matrix(0.1,0,0,-0.1,0,540)"/>
<path style="fill:none;stroke-width:20;stroke-linecap:round;stroke-linejoin:round;stroke: #F44336;stroke-opacity:1;stroke-miterlimit:10;" d="M 5122.734375 681.71875 L 5122.734375 860.742188 " transform="matrix(0.1,0,0,-0.1,0,540)"/>
<path style="fill:none;stroke-width:20;stroke-linecap:round;stroke-linejoin:round;stroke: #F44336;stroke-opacity:0.4784;stroke-miterlimit:10;" d="M 5122.734375 942.8125 L 5122.734375 993.28125 " transform="matrix(0.1,0,0,-0.1,0,540)"/>
<path style="stroke:none;fill-rule:nonzero;fill: #F68603;fill-opacity:1;" d="M 423.808594 438.625 C 423.808594 429.894531 430.886719 422.816406 439.617188 422.816406 L 481.699219 422.816406 C 490.433594 422.816406 497.511719 429.894531 497.511719 438.625 L 497.511719 469.738281 C 497.511719 478.46875 490.433594 485.550781 481.699219 485.550781 L 439.617188 485.550781 C 430.886719 485.550781 423.808594 478.46875 423.808594 469.738281 "/>
<path style="fill:none;stroke-width:20;stroke-linecap:round;stroke-linejoin:round;stroke: #F44336;stroke-opacity:1;stroke-miterlimit:10;" d="M 3969.53125 922.851563 L 3969.53125 1127.65625 " transform="matrix(0.1,0,0,-0.1,0,540)"/>
<path style="fill:none;stroke-width:20;stroke-linecap:round;stroke-linejoin:round;stroke: #F44336;stroke-opacity:0.4784;stroke-miterlimit:10;" d="M 3969.53125 1216.015625 L 3969.53125 1420.859375 " transform="matrix(0.1,0,0,-0.1,0,540)"/>
<path style="fill:none;stroke-width:20;stroke-linecap:round;stroke-linejoin:round;stroke: #F44336;stroke-opacity:1;stroke-miterlimit:10;" d="M 4064.609375 1063.4375 L 4064.609375 1242.421875 " transform="matrix(0.1,0,0,-0.1,0,540)"/>
<path style="fill:none;stroke-width:20;stroke-linecap:round;stroke-linejoin:round;stroke: #F44336;stroke-opacity:0.4784;stroke-miterlimit:10;" d="M 4064.609375 1324.492188 L 4064.609375 1374.960938 " transform="matrix(0.1,0,0,-0.1,0,540)"/>
<path style="stroke:none;fill-rule:nonzero;fill: #03d4ef;fill-opacity:1;" d="M 305.128906 198.0625 C 305.128906 188.136719 313.179688 180.085938 323.109375 180.085938 C 333.039063 180.085938 341.089844 188.136719 341.089844 198.0625 C 341.089844 207.992188 333.039063 216.042969 323.109375 216.042969 C 313.179688 216.042969 305.128906 207.992188 305.128906 198.0625 "/>
<path style="stroke:none;fill-rule:nonzero;fill: #03d4ef;fill-opacity:1;" d="M 326.976563 201.949219 C 326.976563 184.835938 340.847656 170.960938 357.960938 170.960938 C 375.074219 170.960938 388.945313 184.835938 388.945313 201.949219 C 388.945313 219.0625 375.074219 232.933594 357.960938 232.933594 C 340.847656 232.933594 326.976563 219.0625 326.976563 201.949219 "/>
<path style="stroke:none;fill-rule:nonzero;fill: #03d4ef;fill-opacity:1;" d="M 289.054688 220.117188 C 289.054688 212.652344 295.105469 206.601563 302.570313 206.601563 L 379.605469 206.601563 C 387.066406 206.601563 393.121094 212.652344 393.121094 220.117188 L 393.117188 220.117188 C 393.117188 227.582031 387.066406 233.632813 379.605469 233.632813 L 302.570313 233.632813 C 295.105469 233.632813 289.054688 227.582031 289.054688 220.117188 "/>
<path style="stroke:none;fill-rule:nonzero;fill: #03d4ef;fill-opacity:1;" d="M 367.261719 215.464844 C 367.261719 205.535156 375.308594 197.484375 385.238281 197.484375 C 395.171875 197.484375 403.21875 205.535156 403.21875 215.464844 C 403.21875 225.394531 395.171875 233.445313 385.238281 233.445313 C 375.308594 233.445313 367.261719 225.394531 367.261719 215.464844 "/>
<path style="stroke:none;fill-rule:nonzero;fill: #70b4ea;fill-opacity:1;" d="M 209.652344 360.210938 C 209.652344 353.4375 215.140625 347.949219 221.914063 347.949219 C 228.6875 347.949219 234.179688 353.4375 234.179688 360.210938 C 234.179688 366.984375 228.6875 372.476563 221.914063 372.476563 C 215.140625 372.476563 209.652344 366.984375 209.652344 360.210938 "/>
<path style="stroke:none;fill-rule:nonzero;fill: #70b4ea;fill-opacity:1;" d="M 224.550781 362.859375 C 224.550781 351.1875 234.015625 341.726563 245.6875 341.726563 C 257.359375 341.726563 266.820313 351.1875 266.820313 362.859375 C 266.820313 374.53125 257.359375 383.996094 245.6875 383.996094 C 234.015625 383.996094 224.550781 374.53125 224.550781 362.859375 "/>
<path style="stroke:none;fill-rule:nonzero;fill: #70b4ea;fill-opacity:1;" d="M 198.6875 375.253906 C 198.6875 370.164063 202.816406 366.035156 207.90625 366.035156 L 260.449219 366.035156 C 265.539063 366.035156 269.667969 370.164063 269.667969 375.253906 C 269.667969 380.347656 265.539063 384.472656 260.449219 384.472656 L 207.90625 384.472656 C 202.816406 384.472656 198.6875 380.347656 198.6875 375.253906 "/>
<path style="stroke:none;fill-rule:nonzero;fill: #70b4ea;fill-opacity:1;" d="M 252.03125 372.082031 C 252.03125 365.308594 257.519531 359.816406 264.292969 359.816406 C 271.066406 359.816406 276.558594 365.308594 276.558594 372.082031 C 276.558594 378.855469 271.066406 384.34375 264.292969 384.34375 C 257.519531 384.34375 252.03125 378.855469 252.03125 372.082031 "/>
<path style="stroke:none;fill-rule:nonzero;fill: #2196f3;fill-opacity:1;" d="M 627.300781 317.441406 C 627.300781 303.875 638.296875 292.878906 651.863281 292.878906 C 665.429688 292.878906 676.429688 303.875 676.429688 317.441406 C 676.429688 331.007813 665.429688 342.003906 651.863281 342.003906 C 638.296875 342.003906 627.300781 331.007813 627.300781 317.441406 "/>
<path style="stroke:none;fill-rule:nonzero;fill: #2196f3;fill-opacity:1;" d="M 657.144531 322.746094 C 657.144531 299.367188 676.097656 280.414063 699.480469 280.414063 C 722.859375 280.414063 741.8125 299.367188 741.8125 322.746094 C 741.8125 346.125 722.859375 365.078125 699.480469 365.078125 C 676.097656 365.078125 657.144531 346.125 657.144531 322.746094 "/>
<path style="stroke:none;fill-rule:nonzero;fill: #2196f3;fill-opacity:1;" d="M 605.34375 347.570313 C 605.34375 337.371094 613.609375 329.105469 623.808594 329.105469 L 729.046875 329.105469 C 739.246094 329.105469 747.511719 337.371094 747.511719 347.570313 C 747.511719 357.769531 739.246094 366.035156 729.046875 366.035156 L 623.808594 366.035156 C 613.609375 366.035156 605.34375 357.769531 605.34375 347.570313 "/>
<path style="stroke:none;fill-rule:nonzero;fill: #2196f3;fill-opacity:1;" d="M 712.183594 341.214844 C 712.183594 327.648438 723.183594 316.652344 736.746094 316.652344 C 750.3125 316.652344 761.3125 327.648438 761.3125 341.214844 C 761.3125 354.78125 750.3125 365.777344 736.746094 365.777344 C 723.183594 365.777344 712.183594 354.78125 712.183594 341.214844 "/>
<path style=" stroke:none;fill-rule:nonzero;fill:rgb(100%,100%,100%);fill-opacity:1;" d="M 444.066406 475.058594 C 448.019531 463.027344 458.621094 457.5 467.746094 462.710938 C 471.972656 465.128906 475.335938 469.585938 477.144531 475.171875 "/>
<path style=" stroke:none;fill-rule:nonzero;fill:rgb(100%,100%,100%);fill-opacity:1;" d="M 437.484375 442.195313 C 437.484375 439.367188 439.664063 437.074219 442.355469 437.074219 C 445.046875 437.074219 447.226563 439.367188 447.226563 442.195313 C 447.226563 445.023438 445.046875 447.316406 442.355469 447.316406 C 439.664063 447.316406 437.484375 445.023438 437.484375 442.195313 "/>
<path style=" stroke:none;fill-rule:nonzero;fill:rgb(100%,100%,100%);fill-opacity:1;" d="M 471.308594 442.195313 C 471.308594 439.367188 473.488281 437.074219 476.179688 437.074219 C 478.867188 437.074219 481.050781 439.367188 481.050781 442.195313 C 481.050781 445.023438 478.867188 447.316406 476.179688 447.316406 C 473.488281 447.316406 471.308594 445.023438 471.308594 442.195313 "/>
</g>
</svg>